<svg width="13" height="15" viewBox="0 0 13 15" fill="none" xmlns="http://www.w3.org/2000/svg">
<path d="M11.149 0.954956H1.85104C1.06696 0.954956 0.428589 1.56829 0.428589 2.32829V11.3416C0.428589 12.1016 1.06696 12.715 1.85104 12.715H9.71961L9.35185 11.4816L10.24 12.275L11.0796 13.0216L12.5714 14.2883V2.32829C12.5714 1.56829 11.9331 0.954956 11.149 0.954956ZM8.47063 9.66162C8.47063 9.66162 8.22083 9.37495 8.01267 9.12162C8.92165 8.87495 9.26859 8.32829 9.26859 8.32829C8.9841 8.50829 8.71349 8.63495 8.47063 8.72162C8.12369 8.86162 7.79063 8.95495 7.46451 9.00829C6.79838 9.12829 6.18777 9.09495 5.66736 9.00162C5.27185 8.92829 4.93185 8.82162 4.64736 8.71495C4.48777 8.65495 4.3143 8.58162 4.14083 8.48829C4.12002 8.47495 4.0992 8.46829 4.07838 8.45495C4.06451 8.44829 4.05757 8.44162 4.05063 8.43495C3.92573 8.36829 3.85634 8.32162 3.85634 8.32162C3.85634 8.32162 4.1894 8.85495 5.07063 9.10829C4.86247 9.36162 4.60573 9.66162 4.60573 9.66162C3.07226 9.61495 2.4894 8.64829 2.4894 8.64829C2.4894 6.50162 3.48859 4.76162 3.48859 4.76162C4.48777 4.04162 5.43838 4.06162 5.43838 4.06162L5.50777 4.14162C4.25879 4.48829 3.68287 5.01496 3.68287 5.01496C3.68287 5.01496 3.83553 4.93495 4.09226 4.82162C4.83471 4.50829 5.42451 4.42162 5.66736 4.40162C5.709 4.39495 5.74369 4.38829 5.78532 4.38829C6.20859 4.33496 6.68736 4.32162 7.18695 4.37496C7.84614 4.44829 8.55389 4.63496 9.27553 5.01496C9.27553 5.01496 8.72736 4.51495 7.54777 4.16829L7.64491 4.06162C7.64491 4.06162 8.59553 4.04162 9.59471 4.76162C9.59471 4.76162 10.5939 6.50162 10.5939 8.64829C10.5939 8.64829 10.0041 9.61495 8.47063 9.66162Z" fill="white"/>
</svg>
