<svg width="11" height="12" viewBox="0 0 11 12" fill="none" xmlns="http://www.w3.org/2000/svg">
<path d="M2.31105 7.57276C2.31105 8.20875 1.79151 8.72829 1.15553 8.72829C0.519539 8.72829 0 8.20875 0 7.57276C0 6.93678 0.519539 6.41724 1.15553 6.41724H2.31105V7.57276Z" fill="white"/>
<path d="M2.89343 7.57276C2.89343 6.93678 3.41297 6.41724 4.04896 6.41724C4.68495 6.41724 5.20448 6.93678 5.20448 7.57276V10.4661C5.20448 11.102 4.68495 11.6216 4.04896 11.6216C3.41297 11.6216 2.89343 11.102 2.89343 10.4661V7.57276Z" fill="white"/>
<path d="M4.04896 2.93264C3.41297 2.93264 2.89343 2.4131 2.89343 1.77711C2.89343 1.14112 3.41297 0.621582 4.04896 0.621582C4.68495 0.621582 5.20448 1.14112 5.20448 1.77711V2.93264H4.04896Z" fill="white"/>
<path d="M4.04883 3.51477C4.68482 3.51477 5.20436 4.03431 5.20436 4.6703C5.20436 5.30628 4.68482 5.82582 4.04883 5.82582H1.15553C0.51954 5.82582 0 5.30628 0 4.6703C0 4.03431 0.51954 3.51477 1.15553 3.51477H4.04883Z" fill="white"/>
<path d="M8.68884 4.6703C8.68884 4.03431 9.20838 3.51477 9.84437 3.51477C10.4804 3.51477 10.9999 4.03431 10.9999 4.6703C10.9999 5.30628 10.4804 5.82582 9.84437 5.82582H8.68884V4.6703Z" fill="white"/>
<path d="M8.10646 4.67041C8.10646 5.3064 7.58692 5.82594 6.95094 5.82594C6.31495 5.82594 5.79541 5.3064 5.79541 4.67041V1.77711C5.79541 1.14112 6.31495 0.621582 6.95094 0.621582C7.58692 0.621582 8.10646 1.14112 8.10646 1.77711V4.67041Z" fill="white"/>
<path d="M6.95094 9.31042C7.58692 9.31042 8.10646 9.82996 8.10646 10.4659C8.10646 11.1019 7.58692 11.6215 6.95094 11.6215C6.31495 11.6215 5.79541 11.1019 5.79541 10.4659V9.31042H6.95094Z" fill="white"/>
<path d="M6.95094 8.72829C6.31495 8.72829 5.79541 8.20875 5.79541 7.57276C5.79541 6.93678 6.31495 6.41724 6.95094 6.41724H9.84423C10.4802 6.41724 10.9998 6.93678 10.9998 7.57276C10.9998 8.20875 10.4802 8.72829 9.84423 8.72829H6.95094Z" fill="white"/>
</svg>
