<svg width="17" height="17" viewBox="0 0 17 17" fill="none" xmlns="http://www.w3.org/2000/svg">
<path d="M1.48958 0.50032C1.21326 0.224001 0.767699 0.221559 0.494395 0.494863C0.22109 0.768168 0.223536 1.21372 0.499855 1.49004L15.5095 16.4997C15.7858 16.776 16.2313 16.7784 16.5046 16.5051C16.778 16.2318 16.7755 15.7863 16.4992 15.5099L1.48958 0.50032Z" fill="#222222"/>
<path d="M0.50032 15.5104C0.224001 15.7867 0.221559 16.2323 0.494863 16.5056C0.768168 16.7789 1.21372 16.7765 1.49004 16.5001L16.4997 1.49053C16.776 1.21421 16.7784 0.768656 16.5051 0.495351C16.2318 0.222047 15.7863 0.22449 15.5099 0.500809L0.50032 15.5104Z" fill="#222222"/>
</svg>
