<svg width="17" height="17" viewBox="0 0 17 17" fill="none" xmlns="http://www.w3.org/2000/svg">
<path d="M1.49004 0.50032C1.21372 0.224001 0.768157 0.221559 0.494853 0.494863C0.221548 0.768168 0.223993 1.21372 0.500313 1.49004L15.5099 16.4997C15.7862 16.776 16.2318 16.7784 16.5051 16.5051C16.7784 16.2318 16.776 15.7863 16.4996 15.5099L1.49004 0.50032Z" fill="white"/>
<path d="M0.500351 15.5104C0.224032 15.7867 0.221589 16.2323 0.494893 16.5056C0.768198 16.7789 1.21375 16.7765 1.49007 16.5001L16.4997 1.49053C16.776 1.21421 16.7785 0.768656 16.5051 0.495351C16.2318 0.222047 15.7863 0.22449 15.51 0.500809L0.500351 15.5104Z" fill="white"/>
</svg>
