<svg width="12" height="9" viewBox="0 0 12 9" fill="none" xmlns="http://www.w3.org/2000/svg">
<path d="M2 0.500355C2 0.299524 2.13991 0.136719 2.3125 0.136719H11.6875C11.8601 0.136719 12 0.299524 12 0.500355C12 0.701186 11.8601 0.863991 11.6875 0.863991H2.3125C2.13991 0.863991 2 0.701186 2 0.500355Z" fill="#222222"/>
<path d="M2 4.5C2 4.29917 2.13991 4.13636 2.3125 4.13636H11.6875C11.8601 4.13636 12 4.29917 12 4.5C12 4.70083 11.8601 4.86364 11.6875 4.86364H2.3125C2.13991 4.86364 2 4.70083 2 4.5Z" fill="#222222"/>
<path d="M2.28906 8.13636C2.11647 8.13636 1.97656 8.29917 1.97656 8.5C1.97656 8.70083 2.11647 8.86364 2.28906 8.86364H11.6641C11.8367 8.86364 11.9766 8.70083 11.9766 8.5C11.9766 8.29917 11.8367 8.13636 11.6641 8.13636H2.28906Z" fill="#222222"/>
<circle cx="0.5" cy="0.5" r="0.5" fill="#222222"/>
<circle cx="0.5" cy="4.5" r="0.5" fill="#222222"/>
<circle cx="0.5" cy="8.5" r="0.5" fill="#222222"/>
</svg>
