<svg width="16" height="16" viewBox="0 0 16 16" fill="none" xmlns="http://www.w3.org/2000/svg">
<path d="M7.26327 5.04812C3.93898 3.87134 1.56219 5.37015 0.185093 7.09556C0.1329 7.15917 0.0325286 7.11942 0.0445732 7.03593C0.12487 6.57873 0.313569 5.68422 0.682935 4.86525C2.18449 1.53766 6.17926 -0.0804157 8.55605 0.00307216C10.9328 0.08656 13.7794 1.64102 12.7917 3.83556C11.9205 5.77566 10.7401 6.28056 7.26327 5.04812Z" fill="black"/>
<path d="M4.7781 4.99633C4.7781 4.9526 4.74598 4.91284 4.69781 4.91284C3.59372 4.94067 1.24504 5.67218 0.0285373 7.88262C0.0245224 7.89057 0.0205071 7.89853 0.0205071 7.91045C-0.356889 10.5542 4.59743 12.2796 4.7781 4.99633Z" fill="black"/>
<path d="M8.73671 10.9519C12.061 12.1286 14.4378 10.6298 15.8149 8.90443C15.8671 8.84082 15.9675 8.88057 15.9554 8.96406C15.8751 9.42126 15.6864 10.3158 15.3171 11.1347C13.8195 14.4623 9.82474 16.0804 7.44795 15.9969C5.07116 15.9134 2.22463 14.359 3.21228 12.1644C4.07949 10.2283 5.26387 9.7234 8.73671 10.9519Z" fill="black"/>
<path d="M11.2139 11.0433C11.2139 11.087 11.246 11.1268 11.2942 11.1268C12.3982 11.099 14.755 10.3317 15.9715 8.11727C15.9755 8.10931 15.9795 8.10136 15.9795 8.08944C16.3569 5.44963 11.3945 3.76 11.2139 11.0433Z" fill="black"/>
</svg>
