<svg width="226" height="100" viewBox="0 0 226 100" fill="none" xmlns="http://www.w3.org/2000/svg">
<path d="M133.336 99.8684H223.812C224.814 99.8684 225.566 99.1165 225.566 98.114C225.566 97.8634 225.441 97.4875 225.316 97.2368L180.203 20.1691C179.702 19.292 178.574 19.0413 177.822 19.5426C177.571 19.6679 177.321 19.9185 177.195 20.1691L131.957 97.2368C131.456 98.114 131.707 99.1165 132.584 99.6178C132.834 99.7431 133.085 99.8684 133.336 99.8684Z" fill="url(#paint0_radial)"/>
<path d="M43.2331 99.9183C67.1101 99.9183 86.4662 80.5622 86.4662 56.6852C86.4662 32.8083 67.1101 13.4521 43.2331 13.4521C19.3561 13.4521 0 32.8083 0 56.6852C0 80.5622 19.3561 99.9183 43.2331 99.9183Z" fill="url(#paint1_linear)"/>
<g filter="url(#filter0_b)">
<path d="M70.048 0H152.629C157.391 0 161.276 3.88471 161.276 8.64662V91.2281C161.276 95.99 157.391 99.8747 152.629 99.8747H70.048C65.2861 99.8747 61.4014 95.99 61.4014 91.2281V8.64662C61.4014 3.88471 65.2861 0 70.048 0Z" fill="url(#paint2_radial)" fill-opacity="0.8"/>
</g>
<mask id="mask0" mask-type="alpha" maskUnits="userSpaceOnUse" x="61" y="0" width="101" height="100">
<path d="M70.048 0.12207H152.629C157.391 0.12207 161.276 4.00678 161.276 8.76869V91.3502C161.276 96.1121 157.391 99.9968 152.629 99.9968H70.048C65.2861 99.9968 61.4014 96.1121 61.4014 91.3502V8.76869C61.4014 4.00678 65.2861 0.12207 70.048 0.12207Z" fill="url(#paint3_radial)" fill-opacity="0.4"/>
</mask>
<g mask="url(#mask0)">
<circle cx="149.121" cy="11.4017" r="80.2005" fill="url(#paint4_radial)" fill-opacity="0.8"/>
</g>
<defs>
<filter id="filter0_b" x="55.4014" y="-6" width="111.875" height="111.875" filterUnits="userSpaceOnUse" color-interpolation-filters="sRGB">
<feFlood flood-opacity="0" result="BackgroundImageFix"/>
<feGaussianBlur in="BackgroundImage" stdDeviation="3"/>
<feComposite in2="SourceAlpha" operator="in" result="effect1_backgroundBlur"/>
<feBlend mode="normal" in="SourceGraphic" in2="effect1_backgroundBlur" result="shape"/>
</filter>
<radialGradient id="paint0_radial" cx="0" cy="0" r="1" gradientUnits="userSpaceOnUse" gradientTransform="translate(159.777 53.3772) rotate(69.6108) scale(75.5344 87.9857)">
<stop offset="0.225881" stop-color="#B3CEFF"/>
<stop offset="1" stop-color="#669DFF"/>
</radialGradient>
<linearGradient id="paint1_linear" x1="-15.6642" y1="116.209" x2="66.4161" y2="46.0336" gradientUnits="userSpaceOnUse">
<stop offset="0.0907324" stop-color="#4D8DFF"/>
<stop offset="1" stop-color="#B3CEFF"/>
</linearGradient>
<radialGradient id="paint2_radial" cx="0" cy="0" r="1" gradientUnits="userSpaceOnUse" gradientTransform="translate(147.868 104.01) rotate(-128.79) scale(172.026)">
<stop offset="0.251632" stop-color="#4D8DFF"/>
<stop offset="0.752799" stop-color="#2371FF" stop-opacity="0.942634"/>
</radialGradient>
<radialGradient id="paint3_radial" cx="0" cy="0" r="1" gradientUnits="userSpaceOnUse" gradientTransform="translate(147.868 104.132) rotate(-128.79) scale(172.026)">
<stop offset="0.251632" stop-color="#4D8DFF"/>
<stop offset="0.752799" stop-color="#2371FF" stop-opacity="0.942634"/>
</radialGradient>
<radialGradient id="paint4_radial" cx="0" cy="0" r="1" gradientUnits="userSpaceOnUse" gradientTransform="translate(149.121 11.4017) rotate(90) scale(80.2005)">
<stop stop-color="#E6EFFF"/>
<stop offset="1" stop-color="#E6EFFF" stop-opacity="0"/>
</radialGradient>
</defs>
</svg>
