<svg width="27" height="28" viewBox="0 0 27 28" fill="none" xmlns="http://www.w3.org/2000/svg">
<path d="M12.2454 8.56751C6.64086 6.57031 2.63375 9.11404 0.312069 12.0424C0.224075 12.1503 0.054856 12.0828 0.0751623 11.9411C0.210537 11.1652 0.528671 9.64707 1.1514 8.25713C3.68291 2.60966 10.4178 -0.136479 14.4249 0.00521396C18.432 0.146907 23.2311 2.78509 21.566 6.50959C20.0971 9.80226 18.1071 10.6592 12.2454 8.56751Z" fill="url(#paint0_linear)"/>
<path d="M8.05555 8.47983C8.05555 8.40561 8.0014 8.33813 7.92017 8.33813C6.05876 8.38537 2.09904 9.62686 0.0481119 13.3783C0.0413431 13.3918 0.0345735 13.4053 0.0345735 13.4256C-0.601689 17.9125 7.75095 20.8408 8.05555 8.47983Z" fill="url(#paint1_linear)"/>
<path d="M14.7295 18.5873C20.334 20.5845 24.3411 18.0408 26.6628 15.1125C26.7508 15.0045 26.92 15.072 26.8997 15.2137C26.7644 15.9896 26.4462 17.5077 25.8235 18.8977C23.2988 24.5451 16.5638 27.2913 12.5567 27.1496C8.54964 27.0079 3.75059 24.3697 5.4157 20.6452C6.87776 17.3593 8.87454 16.5024 14.7295 18.5873Z" fill="url(#paint2_linear)"/>
<path d="M18.9058 18.7424C18.9058 18.8167 18.9599 18.8841 19.0411 18.8841C20.9025 18.8369 24.8758 17.5347 26.9267 13.7764C26.9335 13.7629 26.9403 13.7495 26.9403 13.7292C27.5765 9.24902 19.2104 6.38143 18.9058 18.7424Z" fill="url(#paint3_linear)"/>
<defs>
<linearGradient id="paint0_linear" x1="19.9614" y1="6.06511" x2="-1.21331" y2="13.5849" gradientUnits="userSpaceOnUse">
<stop offset="0.635145" stop-color="white"/>
<stop offset="1" stop-color="white" stop-opacity="0"/>
</linearGradient>
<linearGradient id="paint1_linear" x1="4.95357" y1="11.5433" x2="10.5862" y2="8.3019" gradientUnits="userSpaceOnUse">
<stop stop-color="white"/>
<stop offset="1" stop-color="white" stop-opacity="0"/>
</linearGradient>
<linearGradient id="paint2_linear" x1="12.8008" y1="25.5812" x2="28.2745" y2="15.029" gradientUnits="userSpaceOnUse">
<stop offset="0.613976" stop-color="white"/>
<stop offset="1" stop-color="white" stop-opacity="0"/>
</linearGradient>
<linearGradient id="paint3_linear" x1="22.5607" y1="15.5052" x2="18.1511" y2="21.6224" gradientUnits="userSpaceOnUse">
<stop stop-color="white"/>
<stop offset="1" stop-color="white" stop-opacity="0"/>
</linearGradient>
</defs>
</svg>
