<svg width="728" height="889" viewBox="0 0 728 889" fill="none" xmlns="http://www.w3.org/2000/svg">
<path d="M430.202 468.609C627.525 443.432 708.235 306.687 732.888 183.972C733.868 179.411 739.935 178.866 741.484 183.409C749.246 208.659 762.845 258.866 765.421 309.854C776.052 516.941 617.155 701.055 495.626 757.512C374.096 813.969 191.025 807.782 184.016 671.207C177.624 550.821 224.084 494.957 430.202 468.609Z" fill="url(#paint0_linear)"/>
<path d="M557.474 411.757C558.602 413.976 561.241 415.173 563.661 413.943C618.396 384.337 716.969 285.222 720.941 141.796C720.937 141.29 720.934 140.784 720.626 140.178C671.479 -3.40611 378.652 37.5775 557.474 411.757Z" fill="url(#paint1_linear)"/>
<defs>
<linearGradient id="paint0_linear" x1="833.508" y1="199.542" x2="190.777" y2="826.804" gradientUnits="userSpaceOnUse">
<stop stop-color="#FC950B"/>
<stop offset="0.612893" stop-color="#F9C438"/>
</linearGradient>
<linearGradient id="paint1_linear" x1="765.204" y1="458.39" x2="399.766" y2="-79.6528" gradientUnits="userSpaceOnUse">
<stop stop-color="#FC950B"/>
<stop offset="1" stop-color="#F9C438"/>
</linearGradient>
</defs>
</svg>
