<svg width="16" height="14" viewBox="2 2 16 16" fill="none" xmlns="http://www.w3.org/2000/svg">
<path d="M8.74113 10.947C12.0664 12.1249 14.4438 10.6247 15.8213 8.89762C15.8735 8.83395 15.9739 8.87374 15.9618 8.95731C15.8815 9.41495 15.6928 10.3103 15.3233 11.1301C13.8253 14.4609 9.82946 16.0805 7.452 15.9969C5.07454 15.9133 2.22722 14.3574 3.21515 12.1607C4.0826 10.2228 5.26731 9.71738 8.74113 10.947Z" fill="url(#paint2_linear)"/>
<path d="M11.2125 11.07C11.2125 11.1138 11.2447 11.1536 11.2928 11.1536C12.3972 11.1258 14.7546 10.3577 15.9715 8.14119C15.9755 8.13323 15.9795 8.12527 15.9795 8.11333C16.357 5.47099 11.3932 3.77974 11.2125 11.07Z" fill="url(#paint3_linear)"/>
<defs>
<linearGradient id="paint2_linear" x1="17.2883" y1="9.94356" x2="2.09626" y2="14.7361" gradientUnits="userSpaceOnUse">
<stop stop-color="#FC950B"/>
<stop offset="0.612893" stop-color="#F9C438"/>
</linearGradient>
<linearGradient id="paint3_linear" x1="14.1247" y1="13.4565" x2="12.6976" y2="2.10704" gradientUnits="userSpaceOnUse">
<stop stop-color="#FC950B"/>
<stop offset="1" stop-color="#F9C438"/>
</linearGradient>
</defs>
</svg>
