<svg width="733" height="891" viewBox="0 0 733 891" fill="none" xmlns="http://www.w3.org/2000/svg">
<path d="M301.846 420.46C104.522 445.637 23.8128 582.382 -0.840037 705.097C-1.82044 709.658 -7.88729 710.203 -9.43618 705.66C-17.198 680.41 -30.7972 630.203 -33.3736 579.215C-43.8026 372.025 115.094 187.912 236.624 131.455C358.153 74.9974 541.224 81.1846 548.234 217.759C554.527 338.45 508.268 394.211 301.846 420.46Z" fill="url(#paint0_linear)"/>
<path d="M171.038 482.315C169.91 480.096 167.271 478.899 164.851 480.129C110.116 509.735 11.0233 606.829 6.94909 750.054C6.95257 750.56 6.95602 751.066 7.26371 751.671C56.5134 895.457 349.86 856.494 171.038 482.315Z" fill="url(#paint1_linear)"/>
<defs>
<linearGradient id="paint0_linear" x1="25.491" y1="740.529" x2="498.017" y2="-23.2749" gradientUnits="userSpaceOnUse">
<stop stop-color="#FC950B"/>
<stop offset="0.592076" stop-color="#F9C438"/>
</linearGradient>
<linearGradient id="paint1_linear" x1="190.911" y1="414.106" x2="81.5623" y2="866.994" gradientUnits="userSpaceOnUse">
<stop stop-color="#FC950B"/>
<stop offset="1" stop-color="#F9C438"/>
</linearGradient>
</defs>
</svg>
