<svg width="16" height="14" viewBox="0 0 14 14" fill="none" xmlns="http://www.w3.org/2000/svg">
<path d="M7.27287 5.05296C3.94764 3.87505 1.57018 5.3753 0.192701 7.10237C0.140493 7.16604 0.0400939 7.12624 0.0521418 7.04268C0.132461 6.58504 0.321213 5.68967 0.690683 4.86991C2.19266 1.53913 6.18855 -0.0804928 8.56601 0.0030751C10.9435 0.086643 13.7908 1.6426 12.8029 3.83924C11.9314 5.7812 10.7507 6.28658 7.27287 5.05296Z" fill="url(#paint0_linear)"/>
<path d="M4.77944 4.99812C4.77944 4.95434 4.74731 4.91455 4.69912 4.91455C3.59473 4.94241 1.24539 5.67462 0.0285453 7.88718C0.0245293 7.89514 0.0205128 7.9031 0.0205128 7.91504C-0.356989 10.5614 4.59872 12.2884 4.77944 4.99812Z" fill="url(#paint1_linear)"/>
<defs>
<linearGradient id="paint0_linear" x1="0.324315" y1="7.86759" x2="13.877" y2="-0.453912" gradientUnits="userSpaceOnUse">
<stop stop-color="#FC950B"/>
<stop offset="0.592076" stop-color="#F9C438"/>
</linearGradient>
<linearGradient id="paint1_linear" x1="5.64274" y1="4.08734" x2="0.327581" y2="10.3649" gradientUnits="userSpaceOnUse">
<stop stop-color="#FC950B"/>
<stop offset="1" stop-color="#F9C438"/>
</linearGradient>
</defs>
</svg>
