<svg width="159" height="100" viewBox="0 0 159 100" fill="none" xmlns="http://www.w3.org/2000/svg">
<path d="M69.6448 0H153.86C156.638 0 158.971 2.35031 158.971 5.14829V60.3246C158.971 63.1226 156.638 65.4729 153.86 65.4729H69.6448C66.8672 65.4729 64.5341 63.1226 64.5341 60.3246V5.14829C64.5341 2.35031 66.8672 0 69.6448 0Z" fill="url(#paint0_linear)"/>
<path d="M64.5341 8.66018V5.21831C64.5341 2.33159 66.8689 0 69.7597 0H153.703C156.594 0 158.929 2.33159 158.929 5.21831V8.66018H64.5341Z" fill="url(#paint1_linear)"/>
<g filter="url(#filter0_b)">
<path d="M5.11069 34.4229H89.326C92.1036 34.4229 94.4367 36.7769 94.4367 39.5793V94.8435C94.4367 97.646 92.1036 100 89.326 100H5.11069C2.33314 100 0 97.646 0 94.8435V39.5793C0 36.6648 2.33314 34.4229 5.11069 34.4229Z" fill="url(#paint2_linear)"/>
</g>
<path d="M0 43.3936V39.8283C0 36.8381 2.33314 34.4229 5.22179 34.4229H89.1038C91.9925 34.4229 94.3256 36.8381 94.3256 39.8283V43.3936H0Z" fill="url(#paint3_linear)"/>
<path d="M9.98608 49.374H29.9026V52.0444H9.98608V49.374Z" fill="#337DFF"/>
<path d="M18.6649 54.8262H50.5981V57.4965H18.6649V54.8262Z" fill="#337DFF"/>
<path d="M18.6649 60.2783H39.0265V62.9487H18.6649V60.2783Z" fill="#337DFF"/>
<path d="M18.6649 65.73H32.128V68.4004H18.6649V65.73Z" fill="#337DFF"/>
<path d="M18.6649 80.8623H53.8248V83.5327H18.6649V80.8623Z" fill="#337DFF"/>
<path d="M26.4534 86.3145H42.1419V88.9848H26.4534V86.3145Z" fill="#337DFF"/>
<path d="M18.6649 75.4102H37.135V78.0805H18.6649V75.4102Z" fill="#337DFF"/>
<path d="M72.5175 14.2139H92.434V16.8842H72.5175V14.2139Z" fill="#4D8DFF"/>
<path d="M81.196 19.666H107.677V22.3364H81.196V19.666Z" fill="#4D8DFF"/>
<path d="M81.196 25.1182H101.558V27.7885H81.196V25.1182Z" fill="#4D8DFF"/>
<path d="M116.69 14.2139H136.857V16.8842H116.69V14.2139Z" fill="#4D8DFF"/>
<path d="M125.369 19.666H151.85V22.3364H125.369V19.666Z" fill="#4D8DFF"/>
<path d="M125.369 25.1182H145.73V27.7885H125.369V25.1182Z" fill="#4D8DFF"/>
<path d="M81.196 30.5703H94.6592V33.2407H81.196V30.5703Z" fill="#4D8DFF"/>
<path d="M94.4367 45.7021V48.3725H106.12V45.7021H94.4367Z" fill="#4D8DFF"/>
<path d="M94.4367 51.1543V53.8247H101.892V51.1543H94.4367Z" fill="#4D8DFF"/>
<path d="M94.4367 56.6064V59.2768H101.892V56.6064H94.4367Z" fill="#4D8DFF"/>
<path d="M116.69 36.0225H145.841V38.6928H116.69V36.0225Z" fill="#4D8DFF"/>
<path d="M124.478 41.4741H142.837V44.1445H124.478V41.4741Z" fill="#4D8DFF"/>
<path d="M124.478 46.9263H140.167V49.5966H124.478V46.9263Z" fill="#4D8DFF"/>
<path d="M94.1028 40.2505C94.2141 40.8068 94.3254 41.3631 94.3254 42.0307V42.9209H97.7746V40.2505H94.1028Z" fill="#4D8DFF"/>
<path d="M116.69 30.5703H135.16V33.2407H116.69V30.5703Z" fill="#4D8DFF"/>
<path d="M111.24 8.42822H111.015V65.4727H111.24V8.42822Z" fill="#196BFF"/>
<defs>
<filter id="filter0_b" x="-4" y="30.4229" width="102.437" height="73.5772" filterUnits="userSpaceOnUse" color-interpolation-filters="sRGB">
<feFlood flood-opacity="0" result="BackgroundImageFix"/>
<feGaussianBlur in="BackgroundImage" stdDeviation="2"/>
<feComposite in2="SourceAlpha" operator="in" result="effect1_backgroundBlur"/>
<feBlend mode="normal" in="SourceGraphic" in2="effect1_backgroundBlur" result="shape"/>
</filter>
<linearGradient id="paint0_linear" x1="164.97" y1="13.9899" x2="64.8928" y2="38.8266" gradientUnits="userSpaceOnUse">
<stop stop-color="#4D8DFF"/>
<stop offset="1" stop-color="#99BDFF"/>
</linearGradient>
<linearGradient id="paint1_linear" x1="146.699" y1="4.44112" x2="52.753" y2="-7.8057" gradientUnits="userSpaceOnUse">
<stop stop-color="#196BFF"/>
<stop offset="1" stop-color="#80ADFF"/>
</linearGradient>
<linearGradient id="paint2_linear" x1="-14.9988" y1="69.1732" x2="85.0844" y2="46.0278" gradientUnits="userSpaceOnUse">
<stop stop-color="#4D8DFF"/>
<stop offset="1" stop-color="#80ADFF" stop-opacity="0.6"/>
</linearGradient>
<linearGradient id="paint3_linear" x1="10.5547" y1="38.4482" x2="134.989" y2="38.4482" gradientUnits="userSpaceOnUse">
<stop stop-color="#196BFF"/>
<stop offset="1" stop-color="#669DFF"/>
</linearGradient>
</defs>
</svg>
