<svg width="223" height="100" viewBox="0 0 223 100" fill="none" xmlns="http://www.w3.org/2000/svg">
<path d="M121.029 77.647H98.6765V96.4705H121.029V77.647Z" fill="#669DFF"/>
<path d="M85.8075 100H14.3065C11.0136 100 8.30884 97.2676 8.30884 93.9411V48.5589C8.30884 45.2324 11.0136 42.5 14.3065 42.5H85.6899C88.9827 42.5 91.6875 45.2324 91.6875 48.5589V93.8223C91.8051 97.2676 89.1003 100 85.8075 100Z" fill="url(#paint0_linear)"/>
<path d="M86.9118 47.0586H12.8677V91.7645H86.9118V47.0586Z" fill="url(#paint1_radial)"/>
<path d="M96.2104 99.9998H3.17177C1.40968 99.9998 0 98.5519 0 96.7419V95.2939H99.2647V96.7419C99.2647 98.5519 97.855 99.9998 96.2104 99.9998Z" fill="#80ADFF"/>
<g filter="url(#filter0_b)">
<path d="M160.673 78.9559H59.1061C54.3985 78.9559 50.5147 75.0554 50.5147 70.3275V8.62841C50.5147 3.90052 54.3985 0 59.1061 0H160.673C165.381 0 169.265 3.90052 169.265 8.62841V70.3275C169.265 75.0554 165.381 78.9559 160.673 78.9559Z" fill="url(#paint2_linear)" fill-opacity="0.8"/>
</g>
<g filter="url(#filter1_b)">
<path d="M161.029 7.05859H58.6765V71.7645H161.029V7.05859Z" fill="url(#paint3_linear)"/>
</g>
<g filter="url(#filter2_b)">
<path d="M153.782 47.2793H217.983C220.438 47.2793 222.426 49.2622 222.426 51.7116V95.5676C222.426 98.017 220.438 99.9999 217.983 99.9999H153.782C151.326 99.9999 149.338 98.017 149.338 95.5676V51.7116C149.338 49.2622 151.326 47.2793 153.782 47.2793Z" fill="url(#paint4_linear)" fill-opacity="0.6"/>
</g>
<g filter="url(#filter3_b)">
<path d="M217.5 49.4116H153.971V96.4704H217.5V49.4116Z" fill="url(#paint5_radial)" fill-opacity="0.6"/>
</g>
<path d="M137.574 95.2939H82.2059V99.9998H137.574V95.2939Z" fill="#99BDFF"/>
<mask id="mask0" mask-type="alpha" maskUnits="userSpaceOnUse" x="58" y="7" width="104" height="65">
<path d="M161.029 7.05859H58.6765V71.7645H161.029V7.05859Z" fill="url(#paint6_linear)"/>
</mask>
<g mask="url(#mask0)">
<ellipse cx="139.853" cy="-11.765" rx="67.0588" ry="63.5294" fill="url(#paint7_radial)" fill-opacity="0.6"/>
</g>
<defs>
<filter id="filter0_b" x="46.5147" y="-4" width="126.75" height="86.9559" filterUnits="userSpaceOnUse" color-interpolation-filters="sRGB">
<feFlood flood-opacity="0" result="BackgroundImageFix"/>
<feGaussianBlur in="BackgroundImage" stdDeviation="2"/>
<feComposite in2="SourceAlpha" operator="in" result="effect1_backgroundBlur"/>
<feBlend mode="normal" in="SourceGraphic" in2="effect1_backgroundBlur" result="shape"/>
</filter>
<filter id="filter1_b" x="54.6765" y="3.05859" width="110.353" height="72.7059" filterUnits="userSpaceOnUse" color-interpolation-filters="sRGB">
<feFlood flood-opacity="0" result="BackgroundImageFix"/>
<feGaussianBlur in="BackgroundImage" stdDeviation="2"/>
<feComposite in2="SourceAlpha" operator="in" result="effect1_backgroundBlur"/>
<feBlend mode="normal" in="SourceGraphic" in2="effect1_backgroundBlur" result="shape"/>
</filter>
<filter id="filter2_b" x="145.338" y="43.2793" width="81.0882" height="60.7206" filterUnits="userSpaceOnUse" color-interpolation-filters="sRGB">
<feFlood flood-opacity="0" result="BackgroundImageFix"/>
<feGaussianBlur in="BackgroundImage" stdDeviation="2"/>
<feComposite in2="SourceAlpha" operator="in" result="effect1_backgroundBlur"/>
<feBlend mode="normal" in="SourceGraphic" in2="effect1_backgroundBlur" result="shape"/>
</filter>
<filter id="filter3_b" x="149.971" y="45.4116" width="71.5294" height="55.0588" filterUnits="userSpaceOnUse" color-interpolation-filters="sRGB">
<feFlood flood-opacity="0" result="BackgroundImageFix"/>
<feGaussianBlur in="BackgroundImage" stdDeviation="2"/>
<feComposite in2="SourceAlpha" operator="in" result="effect1_backgroundBlur"/>
<feBlend mode="normal" in="SourceGraphic" in2="effect1_backgroundBlur" result="shape"/>
</filter>
<linearGradient id="paint0_linear" x1="50" y1="42.5" x2="50" y2="100" gradientUnits="userSpaceOnUse">
<stop stop-color="#80ADFF"/>
<stop offset="1" stop-color="#B3CEFF"/>
</linearGradient>
<radialGradient id="paint1_radial" cx="0" cy="0" r="1" gradientUnits="userSpaceOnUse" gradientTransform="translate(12.3945 47.0586) rotate(68.1606) scale(76.3094 125.754)">
<stop offset="0.0104167" stop-color="#196BFF" stop-opacity="0"/>
<stop offset="0.963542" stop-color="#196BFF"/>
</radialGradient>
<linearGradient id="paint2_linear" x1="109.89" y1="0" x2="109.89" y2="78.9559" gradientUnits="userSpaceOnUse">
<stop stop-color="#80ADFF"/>
<stop offset="1" stop-color="#CCDEFF"/>
</linearGradient>
<linearGradient id="paint3_linear" x1="110.087" y1="-4.96326" x2="109.85" y2="71.7645" gradientUnits="userSpaceOnUse">
<stop stop-color="#196BFF"/>
<stop offset="1" stop-color="#196BFF" stop-opacity="0"/>
</linearGradient>
<linearGradient id="paint4_linear" x1="186.175" y1="102.099" x2="189.083" y2="43.1962" gradientUnits="userSpaceOnUse">
<stop stop-color="#337DFF"/>
<stop offset="1" stop-color="#669DFF" stop-opacity="0.7"/>
</linearGradient>
<radialGradient id="paint5_radial" cx="0" cy="0" r="1" gradientUnits="userSpaceOnUse" gradientTransform="translate(181.029 42.3528) rotate(60.4786) scale(56.1079 78.2912)">
<stop offset="0.0104167" stop-color="#99BDFF" stop-opacity="0"/>
<stop offset="0.963542" stop-color="#196BFF"/>
</radialGradient>
<linearGradient id="paint6_linear" x1="110.087" y1="-4.96326" x2="109.85" y2="71.7645" gradientUnits="userSpaceOnUse">
<stop stop-color="#196BFF"/>
<stop offset="1" stop-color="#196BFF" stop-opacity="0"/>
</linearGradient>
<radialGradient id="paint7_radial" cx="0" cy="0" r="1" gradientUnits="userSpaceOnUse" gradientTransform="translate(139.853 -11.765) rotate(90) scale(63.5294 67.0588)">
<stop offset="0.307292" stop-color="#B3CEFF"/>
<stop offset="1" stop-color="#B3CEFF" stop-opacity="0"/>
</radialGradient>
</defs>
</svg>
