<svg width="192" height="100" viewBox="0 0 192 100" fill="none" xmlns="http://www.w3.org/2000/svg">
<path d="M65.7006 55.0346H3.28006C1.49094 55.0346 0 53.5331 0 51.7314V22.5029C0 20.7012 1.49094 19.1997 3.28006 19.1997H65.7006C67.4897 19.1997 68.9806 20.7012 68.9806 22.5029V51.6313C68.9806 53.5331 67.4897 55.0346 65.7006 55.0346Z" fill="url(#paint0_radial)"/>
<path d="M77.6017 100H25.3253C23.5122 100 22.0013 98.4954 22.0013 96.6898V73.4168C22.0013 71.6112 23.5122 70.1064 25.3253 70.1064H77.6017C79.4147 70.1064 80.9256 71.6112 80.9256 73.4168V96.6898C80.9256 98.4954 79.4147 100 77.6017 100Z" fill="url(#paint1_radial)"/>
<g filter="url(#filter0_b)">
<path d="M118.798 80.0499H45.338C43.5316 80.0499 42.0262 78.5414 42.0262 76.7313V43.3436C42.0262 41.5334 43.5316 40.0249 45.338 40.0249H118.697C120.504 40.0249 122.009 41.5334 122.009 43.3436V76.8318C122.109 78.642 120.604 80.0499 118.798 80.0499Z" fill="url(#paint2_linear)"/>
</g>
<g clip-path="url(#clip0)">
<path d="M152.17 27.6173H146.867V20.7129C146.867 9.20576 137.661 0 126.254 0C114.847 0 105.541 9.20576 105.541 20.6129V27.5172H100.238C98.4365 27.5172 96.9355 29.0181 96.9355 30.8193V67.0419C96.9355 68.843 98.4365 70.344 100.238 70.344H152.17C153.971 70.344 155.472 68.843 155.472 67.0419V30.9193C155.472 29.1182 153.971 27.6173 152.17 27.6173ZM112.545 20.6129C112.545 13.1082 118.649 7.00438 126.254 7.00438C133.859 7.00438 139.862 13.1082 139.862 20.6129V27.5172H112.545V20.6129Z" fill="url(#paint3_radial)"/>
</g>
<path d="M187.801 88.8931H144.294C142.477 88.8931 140.963 87.385 140.963 85.5752V63.3555C140.963 61.5457 142.477 60.0376 144.294 60.0376H187.801C189.618 60.0376 191.132 61.5457 191.132 63.3555V85.5752C191.132 87.385 189.618 88.8931 187.801 88.8931Z" fill="url(#paint4_radial)"/>
<defs>
<filter id="filter0_b" x="38.0262" y="36.0249" width="87.9875" height="48.025" filterUnits="userSpaceOnUse" color-interpolation-filters="sRGB">
<feFlood flood-opacity="0" result="BackgroundImageFix"/>
<feGaussianBlur in="BackgroundImage" stdDeviation="2"/>
<feComposite in2="SourceAlpha" operator="in" result="effect1_backgroundBlur"/>
<feBlend mode="normal" in="SourceGraphic" in2="effect1_backgroundBlur" result="shape"/>
</filter>
<radialGradient id="paint0_radial" cx="0" cy="0" r="1" gradientUnits="userSpaceOnUse" gradientTransform="translate(45.225 33.0132) rotate(178.911) scale(52.6892 102.861)">
<stop offset="0.046875" stop-color="#CCDEFF"/>
<stop offset="1" stop-color="#669DFF"/>
</radialGradient>
<radialGradient id="paint1_radial" cx="0" cy="0" r="1" gradientUnits="userSpaceOnUse" gradientTransform="translate(-19.5982 39.009) rotate(39.2099) scale(115.046 220.058)">
<stop offset="0.046875" stop-color="#CCDEFF"/>
<stop offset="1" stop-color="#337DFF"/>
</radialGradient>
<linearGradient id="paint2_linear" x1="62.3983" y1="50.0814" x2="108.943" y2="24.5152" gradientUnits="userSpaceOnUse">
<stop stop-color="#005BFF" stop-opacity="0.6"/>
<stop offset="1" stop-color="#99BDFF" stop-opacity="0.8"/>
</linearGradient>
<radialGradient id="paint3_radial" cx="0" cy="0" r="1" gradientUnits="userSpaceOnUse" gradientTransform="translate(180.488 20.0125) rotate(158.527) scale(113.44 180.81)">
<stop offset="0.046875" stop-color="#CCDEFF"/>
<stop offset="1" stop-color="#337DFF"/>
</radialGradient>
<radialGradient id="paint4_radial" cx="0" cy="0" r="1" gradientUnits="userSpaceOnUse" gradientTransform="translate(177.505 59.937) rotate(134.906) scale(35.4617 77.2318)">
<stop offset="0.046875" stop-color="#CCDEFF"/>
<stop offset="1" stop-color="#669DFF" stop-opacity="0.83"/>
</radialGradient>
<clipPath id="clip0">
<rect width="58.5366" height="70.444" fill="white" transform="translate(96.9355)"/>
</clipPath>
</defs>
</svg>
