<svg width="57" height="22" viewBox="0 0 57 22" fill="none" xmlns="http://www.w3.org/2000/svg">
<path d="M4.81638 16.6988L0.782715 5.52467H2.74192L4.86248 11.8704C5.03151 12.4223 5.20054 12.9741 5.36957 13.5259C5.55396 14.0777 5.73067 14.6218 5.8997 15.1583H5.9919C6.16093 14.6218 6.32996 14.0777 6.49899 13.5259C6.66802 12.9741 6.83705 12.4223 7.00608 11.8704L9.12663 5.52467H10.9936L7.02913 16.6988H4.81638Z" fill="white"/>
<path d="M17.4911 16.9747C16.7535 16.9747 16.062 16.8444 15.4166 16.5838C14.7712 16.3232 14.2104 15.9477 13.734 15.4572C13.273 14.9514 12.9042 14.3382 12.6276 13.6178C12.3664 12.8821 12.2358 12.0544 12.2358 11.1347C12.2358 10.1997 12.3818 9.37199 12.6737 8.65157C12.9657 7.91583 13.3575 7.29505 13.8493 6.78923C14.341 6.2834 14.9095 5.9002 15.5549 5.63963C16.2157 5.37905 16.9072 5.24877 17.6294 5.24877C18.367 5.24877 18.997 5.37905 19.5194 5.63963C20.0419 5.9002 20.5029 6.20676 20.9024 6.55931L19.9343 7.80087C19.6116 7.50964 19.2659 7.27206 18.8971 7.08812C18.5437 6.90419 18.1441 6.81222 17.6985 6.81222C17.1914 6.81222 16.7228 6.91952 16.2925 7.13411C15.8622 7.33337 15.4935 7.6246 15.1861 8.0078C14.8788 8.391 14.6329 8.85084 14.4485 9.38732C14.2795 9.90847 14.195 10.4909 14.195 11.1347C14.195 11.7785 14.2795 12.3609 14.4485 12.8821C14.6176 13.4032 14.8481 13.8554 15.14 14.2386C15.4474 14.6065 15.8161 14.8977 16.2464 15.1123C16.6767 15.3116 17.1453 15.4112 17.6524 15.4112C18.1749 15.4112 18.6512 15.3039 19.0815 15.0893C19.5271 14.8594 19.9266 14.5912 20.2801 14.2846L21.1099 15.5492C20.6028 15.9937 20.0419 16.3462 19.4272 16.6068C18.8126 16.852 18.1672 16.9747 17.4911 16.9747Z" fill="white"/>
<path d="M23.5774 21.4121V5.52467H25.1448L25.3061 6.81222H25.3753C25.8824 6.38304 26.4355 6.01516 27.0348 5.70861C27.6495 5.40205 28.2872 5.24877 28.9479 5.24877C29.6702 5.24877 30.3079 5.38672 30.861 5.66262C31.4142 5.9232 31.8752 6.3064 32.244 6.81222C32.6128 7.30271 32.8894 7.9005 33.0738 8.60559C33.2736 9.29535 33.3734 10.0771 33.3734 10.9508C33.3734 11.9011 33.2428 12.7518 32.9816 13.5029C32.7204 14.2386 32.367 14.8671 31.9213 15.3882C31.4757 15.9094 30.9609 16.3079 30.377 16.5838C29.7931 16.8444 29.1784 16.9747 28.5331 16.9747C28.0106 16.9747 27.4881 16.8597 26.9657 16.6298C26.4586 16.3999 25.9438 16.0856 25.4214 15.6871L25.4675 17.6414V21.4121H23.5774ZM28.2104 15.3882C28.6713 15.3882 29.0939 15.2886 29.4781 15.0893C29.8776 14.8747 30.2157 14.5835 30.4923 14.2156C30.7842 13.8324 31.007 13.3649 31.1607 12.8131C31.3297 12.2613 31.4142 11.6405 31.4142 10.9508C31.4142 10.3376 31.3605 9.77818 31.2529 9.27236C31.1453 8.76653 30.9686 8.33735 30.7228 7.98481C30.4923 7.61694 30.1849 7.33337 29.8008 7.13411C29.432 6.93484 28.9864 6.83521 28.4639 6.83521C27.9875 6.83521 27.5035 6.9655 27.0118 7.22607C26.5354 7.48665 26.0207 7.86218 25.4675 8.35268V14.2156C25.9746 14.6448 26.4663 14.9514 26.9426 15.1353C27.419 15.3039 27.8416 15.3882 28.2104 15.3882Z" fill="white"/>
<path d="M36.3627 16.6988V0.328491H38.2297V11.4106H38.2988L43.0701 5.52467H45.1676L41.4105 10.0081L45.6747 16.6988H43.6002L40.3272 11.3186L38.2297 13.7558V16.6988H36.3627Z" fill="white"/>
<path d="M51.3299 21.8489C50.6384 21.8489 50.0084 21.78 49.4398 21.642C48.8713 21.5194 48.3796 21.3278 47.9647 21.0672C47.5652 20.8066 47.2501 20.4924 47.0196 20.1246C46.8045 19.7567 46.697 19.3275 46.697 18.837C46.697 18.3618 46.8429 17.9097 47.1349 17.4805C47.4269 17.0513 47.8264 16.6604 48.3335 16.3079V16.2159C48.0569 16.0473 47.8187 15.8174 47.6189 15.5262C47.4345 15.2196 47.3423 14.8441 47.3423 14.3996C47.3423 13.9244 47.4729 13.5105 47.7342 13.158C47.9954 12.8055 48.272 12.5295 48.564 12.3303V12.2383C48.1952 11.9318 47.8571 11.5256 47.5498 11.0197C47.2578 10.4986 47.1118 9.9008 47.1118 9.22637C47.1118 8.61325 47.2194 8.06145 47.4345 7.57095C47.665 7.08046 47.9724 6.6666 48.3565 6.32939C48.7407 5.97684 49.1863 5.70861 49.6934 5.52467C50.2158 5.34073 50.7613 5.24877 51.3299 5.24877C51.6372 5.24877 51.9215 5.27942 52.1827 5.34073C52.4593 5.38672 52.7052 5.44803 52.9203 5.52467H56.8157V6.97316H54.5107C54.772 7.23374 54.9871 7.56329 55.1561 7.96182C55.3405 8.36034 55.4327 8.79719 55.4327 9.27236C55.4327 9.87015 55.3251 10.4143 55.11 10.9048C54.8949 11.3799 54.6029 11.7861 54.2341 12.1234C53.8653 12.4452 53.4274 12.6982 52.9203 12.8821C52.4286 13.066 51.8985 13.158 51.3299 13.158C51.0533 13.158 50.769 13.1273 50.4771 13.066C50.1851 12.9894 49.9085 12.8898 49.6473 12.7671C49.4475 12.9357 49.2785 13.1273 49.1402 13.3419C49.0019 13.5412 48.9328 13.7941 48.9328 14.1007C48.9328 14.4532 49.0711 14.7444 49.3476 14.9744C49.6242 15.2043 50.1467 15.3192 50.915 15.3192H53.0817C54.3878 15.3192 55.3636 15.5338 56.0089 15.963C56.6697 16.3769 57.0001 17.0513 57.0001 17.9863C57.0001 18.5075 56.8695 18.9979 56.6082 19.4578C56.347 19.933 55.9705 20.3468 55.4788 20.6994C54.9871 21.0519 54.3878 21.3278 53.681 21.5271C52.9895 21.7417 52.2058 21.8489 51.3299 21.8489ZM51.3299 11.8934C51.6526 11.8934 51.9522 11.8321 52.2288 11.7095C52.5208 11.5869 52.7743 11.4106 52.9895 11.1807C53.22 10.9508 53.3967 10.6749 53.5196 10.353C53.6425 10.0158 53.704 9.64023 53.704 9.22637C53.704 8.39866 53.4735 7.76255 53.0125 7.31804C52.5515 6.8582 51.9907 6.62828 51.3299 6.62828C50.6692 6.62828 50.1083 6.8582 49.6473 7.31804C49.1863 7.76255 48.9558 8.39866 48.9558 9.22637C48.9558 9.64023 49.0173 10.0158 49.1402 10.353C49.2631 10.6749 49.4322 10.9508 49.6473 11.1807C49.8778 11.4106 50.1313 11.5869 50.4079 11.7095C50.6999 11.8321 51.0072 11.8934 51.3299 11.8934ZM51.6065 20.5384C52.1443 20.5384 52.6284 20.4694 53.0586 20.3315C53.5042 20.2089 53.8807 20.0402 54.188 19.8257C54.4954 19.6264 54.7335 19.3888 54.9026 19.1129C55.0716 18.837 55.1561 18.5534 55.1561 18.2622C55.1561 17.7411 54.964 17.3808 54.5799 17.1816C54.1957 16.9823 53.6348 16.8827 52.8973 16.8827H50.9611C50.746 16.8827 50.5078 16.8674 50.2466 16.8367C50.0007 16.8214 49.7549 16.7754 49.509 16.6988C49.1095 16.99 48.8175 17.2965 48.6331 17.6184C48.4487 17.9403 48.3565 18.2622 48.3565 18.5841C48.3565 19.1819 48.6408 19.6571 49.2094 20.0096C49.7933 20.3621 50.5923 20.5384 51.6065 20.5384Z" fill="white"/>
</svg>
